<mxfile host="app.diagrams.net" agent="Mozilla/5.0 (Windows NT 10.0; Win64; x64) AppleWebKit/537.36 (KHTML, like Gecko) Chrome/136.0.0.0 Safari/537.36" version="27.0.6">
  <diagram name="Sayfa -1" id="fV4vbOtsWpRzc_29MJvv">
    <mxGraphModel dx="1890" dy="1236" grid="0" gridSize="10" guides="1" tooltips="1" connect="1" arrows="1" fold="1" page="0" pageScale="1" pageWidth="827" pageHeight="1169" math="0" shadow="0">
      <root>
        <mxCell id="0" />
        <mxCell id="1" parent="0" />
        <mxCell id="Wh_Dt6q6_cqK60cal_yp-8" style="edgeStyle=none;curved=1;rounded=0;orthogonalLoop=1;jettySize=auto;html=1;exitX=0.5;exitY=1;exitDx=0;exitDy=0;entryX=0.5;entryY=0;entryDx=0;entryDy=0;fontFamily=Architects Daughter;fontSource=https%3A%2F%2Ffonts.googleapis.com%2Fcss%3Ffamily%3DArchitects%2BDaughter;fontSize=16;startSize=14;endArrow=open;endSize=14;sourcePerimeterSpacing=8;targetPerimeterSpacing=8;" edge="1" parent="1" source="Wh_Dt6q6_cqK60cal_yp-3">
          <mxGeometry relative="1" as="geometry">
            <mxPoint x="254" y="38" as="targetPoint" />
          </mxGeometry>
        </mxCell>
        <mxCell id="Wh_Dt6q6_cqK60cal_yp-3" value="müşteri sisteme giriş yapar" style="rounded=1;whiteSpace=wrap;html=1;fontFamily=Architects Daughter;fontSource=https%3A%2F%2Ffonts.googleapis.com%2Fcss%3Ffamily%3DArchitects%2BDaughter;" vertex="1" parent="1">
          <mxGeometry x="194" y="-68" width="120" height="60" as="geometry" />
        </mxCell>
        <mxCell id="Wh_Dt6q6_cqK60cal_yp-7" style="edgeStyle=none;curved=1;rounded=0;orthogonalLoop=1;jettySize=auto;html=1;exitX=0.5;exitY=1;exitDx=0;exitDy=0;entryX=0.5;entryY=0;entryDx=0;entryDy=0;fontFamily=Architects Daughter;fontSource=https%3A%2F%2Ffonts.googleapis.com%2Fcss%3Ffamily%3DArchitects%2BDaughter;fontSize=16;startSize=14;endArrow=open;endSize=14;sourcePerimeterSpacing=8;targetPerimeterSpacing=8;" edge="1" parent="1" target="Wh_Dt6q6_cqK60cal_yp-6">
          <mxGeometry relative="1" as="geometry">
            <mxPoint x="254" y="118" as="sourcePoint" />
          </mxGeometry>
        </mxCell>
        <mxCell id="Wh_Dt6q6_cqK60cal_yp-10" style="edgeStyle=none;curved=1;rounded=0;orthogonalLoop=1;jettySize=auto;html=1;exitX=1;exitY=0.5;exitDx=0;exitDy=0;entryX=0;entryY=0.5;entryDx=0;entryDy=0;fontFamily=Architects Daughter;fontSource=https%3A%2F%2Ffonts.googleapis.com%2Fcss%3Ffamily%3DArchitects%2BDaughter;fontSize=16;startSize=14;endArrow=open;endSize=14;sourcePerimeterSpacing=8;targetPerimeterSpacing=8;" edge="1" parent="1" target="Wh_Dt6q6_cqK60cal_yp-9">
          <mxGeometry relative="1" as="geometry">
            <mxPoint x="294" y="78" as="sourcePoint" />
          </mxGeometry>
        </mxCell>
        <mxCell id="Wh_Dt6q6_cqK60cal_yp-11" style="edgeStyle=none;curved=1;rounded=0;orthogonalLoop=1;jettySize=auto;html=1;exitX=1;exitY=0.5;exitDx=0;exitDy=0;fontFamily=Architects Daughter;fontSource=https%3A%2F%2Ffonts.googleapis.com%2Fcss%3Ffamily%3DArchitects%2BDaughter;fontSize=16;startSize=14;endArrow=open;endSize=14;sourcePerimeterSpacing=8;targetPerimeterSpacing=8;" edge="1" parent="1">
          <mxGeometry relative="1" as="geometry">
            <mxPoint x="294" y="78" as="targetPoint" />
            <mxPoint x="294" y="78" as="sourcePoint" />
          </mxGeometry>
        </mxCell>
        <mxCell id="Wh_Dt6q6_cqK60cal_yp-19" style="edgeStyle=none;curved=1;rounded=0;orthogonalLoop=1;jettySize=auto;html=1;exitX=0.5;exitY=1;exitDx=0;exitDy=0;entryX=0.5;entryY=0;entryDx=0;entryDy=0;fontFamily=Architects Daughter;fontSource=https%3A%2F%2Ffonts.googleapis.com%2Fcss%3Ffamily%3DArchitects%2BDaughter;fontSize=16;startSize=14;endArrow=open;endSize=14;sourcePerimeterSpacing=8;targetPerimeterSpacing=8;" edge="1" parent="1" source="Wh_Dt6q6_cqK60cal_yp-6" target="Wh_Dt6q6_cqK60cal_yp-18">
          <mxGeometry relative="1" as="geometry" />
        </mxCell>
        <mxCell id="Wh_Dt6q6_cqK60cal_yp-6" value="müşteri ilgili aracı ve tarihi seçerek talep gönderir." style="rounded=1;whiteSpace=wrap;html=1;fontFamily=Architects Daughter;fontSource=https%3A%2F%2Ffonts.googleapis.com%2Fcss%3Ffamily%3DArchitects%2BDaughter;" vertex="1" parent="1">
          <mxGeometry x="196" y="164" width="120" height="60" as="geometry" />
        </mxCell>
        <mxCell id="Wh_Dt6q6_cqK60cal_yp-50" style="edgeStyle=none;curved=1;rounded=0;orthogonalLoop=1;jettySize=auto;html=1;entryX=1;entryY=0.5;entryDx=0;entryDy=0;fontFamily=Architects Daughter;fontSource=https%3A%2F%2Ffonts.googleapis.com%2Fcss%3Ffamily%3DArchitects%2BDaughter;fontSize=16;startSize=14;endArrow=open;endSize=14;sourcePerimeterSpacing=8;targetPerimeterSpacing=8;" edge="1" parent="1" source="Wh_Dt6q6_cqK60cal_yp-9" target="Wh_Dt6q6_cqK60cal_yp-6">
          <mxGeometry relative="1" as="geometry" />
        </mxCell>
        <mxCell id="Wh_Dt6q6_cqK60cal_yp-9" value="müşteri sisteme kaydolur." style="rounded=1;whiteSpace=wrap;html=1;fontFamily=Architects Daughter;fontSource=https%3A%2F%2Ffonts.googleapis.com%2Fcss%3Ffamily%3DArchitects%2BDaughter;" vertex="1" parent="1">
          <mxGeometry x="396" y="46" width="120" height="60" as="geometry" />
        </mxCell>
        <mxCell id="Wh_Dt6q6_cqK60cal_yp-12" value="" style="rhombus;whiteSpace=wrap;html=1;shadow=0;fontFamily=Helvetica;fontSize=12;align=center;strokeWidth=1;spacing=6;spacingTop=-4;" vertex="1" parent="1">
          <mxGeometry x="204" y="38" width="100" height="80" as="geometry" />
        </mxCell>
        <mxCell id="Wh_Dt6q6_cqK60cal_yp-14" value="[giriş işlemi başarılı]" style="text;strokeColor=none;fillColor=none;html=1;align=center;verticalAlign=middle;whiteSpace=wrap;rounded=0;fontSize=20;fontFamily=Architects Daughter;fontSource=https%3A%2F%2Ffonts.googleapis.com%2Fcss%3Ffamily%3DArchitects%2BDaughter;" vertex="1" parent="1">
          <mxGeometry x="61.5" y="122.5" width="187" height="17" as="geometry" />
        </mxCell>
        <mxCell id="Wh_Dt6q6_cqK60cal_yp-16" value="[else]" style="text;strokeColor=none;fillColor=none;html=1;align=center;verticalAlign=middle;whiteSpace=wrap;rounded=0;fontSize=20;fontFamily=Architects Daughter;fontSource=https%3A%2F%2Ffonts.googleapis.com%2Fcss%3Ffamily%3DArchitects%2BDaughter;" vertex="1" parent="1">
          <mxGeometry x="304" y="66" width="61" height="5" as="geometry" />
        </mxCell>
        <mxCell id="Wh_Dt6q6_cqK60cal_yp-21" style="edgeStyle=none;curved=1;rounded=0;orthogonalLoop=1;jettySize=auto;html=1;exitX=0.5;exitY=1;exitDx=0;exitDy=0;fontFamily=Architects Daughter;fontSource=https%3A%2F%2Ffonts.googleapis.com%2Fcss%3Ffamily%3DArchitects%2BDaughter;fontSize=16;startSize=14;endArrow=open;endSize=14;sourcePerimeterSpacing=8;targetPerimeterSpacing=8;" edge="1" parent="1" source="Wh_Dt6q6_cqK60cal_yp-18">
          <mxGeometry relative="1" as="geometry">
            <mxPoint x="254" y="410" as="targetPoint" />
          </mxGeometry>
        </mxCell>
        <mxCell id="Wh_Dt6q6_cqK60cal_yp-18" value="bayi, test aracının stok uygunluğunu kontrol eder." style="rounded=1;whiteSpace=wrap;html=1;fontFamily=Architects Daughter;fontSource=https%3A%2F%2Ffonts.googleapis.com%2Fcss%3Ffamily%3DArchitects%2BDaughter;" vertex="1" parent="1">
          <mxGeometry x="194" y="287" width="120" height="60" as="geometry" />
        </mxCell>
        <mxCell id="Wh_Dt6q6_cqK60cal_yp-25" style="edgeStyle=none;curved=1;rounded=0;orthogonalLoop=1;jettySize=auto;html=1;exitX=0.5;exitY=1;exitDx=0;exitDy=0;entryX=0.5;entryY=0;entryDx=0;entryDy=0;fontFamily=Architects Daughter;fontSource=https%3A%2F%2Ffonts.googleapis.com%2Fcss%3Ffamily%3DArchitects%2BDaughter;fontSize=16;startSize=14;endArrow=open;endSize=14;sourcePerimeterSpacing=8;targetPerimeterSpacing=8;" edge="1" parent="1" source="Wh_Dt6q6_cqK60cal_yp-20" target="Wh_Dt6q6_cqK60cal_yp-24">
          <mxGeometry relative="1" as="geometry" />
        </mxCell>
        <mxCell id="Wh_Dt6q6_cqK60cal_yp-20" value="test sürüşü gerçekleştirilir." style="rounded=1;whiteSpace=wrap;html=1;fontFamily=Architects Daughter;fontSource=https%3A%2F%2Ffonts.googleapis.com%2Fcss%3Ffamily%3DArchitects%2BDaughter;" vertex="1" parent="1">
          <mxGeometry x="194" y="821" width="120" height="58" as="geometry" />
        </mxCell>
        <mxCell id="Wh_Dt6q6_cqK60cal_yp-27" style="edgeStyle=none;curved=1;rounded=0;orthogonalLoop=1;jettySize=auto;html=1;exitX=1;exitY=0.5;exitDx=0;exitDy=0;fontFamily=Architects Daughter;fontSource=https%3A%2F%2Ffonts.googleapis.com%2Fcss%3Ffamily%3DArchitects%2BDaughter;fontSize=16;startSize=14;endArrow=open;endSize=14;sourcePerimeterSpacing=8;targetPerimeterSpacing=8;entryX=0;entryY=0.467;entryDx=0;entryDy=0;entryPerimeter=0;" edge="1" parent="1" source="Wh_Dt6q6_cqK60cal_yp-22" target="Wh_Dt6q6_cqK60cal_yp-26">
          <mxGeometry relative="1" as="geometry" />
        </mxCell>
        <mxCell id="Wh_Dt6q6_cqK60cal_yp-31" style="edgeStyle=none;curved=1;rounded=0;orthogonalLoop=1;jettySize=auto;html=1;exitX=0.5;exitY=1;exitDx=0;exitDy=0;entryX=0.5;entryY=0;entryDx=0;entryDy=0;fontFamily=Architects Daughter;fontSource=https%3A%2F%2Ffonts.googleapis.com%2Fcss%3Ffamily%3DArchitects%2BDaughter;fontSize=16;startSize=14;endArrow=open;endSize=14;sourcePerimeterSpacing=8;targetPerimeterSpacing=8;" edge="1" parent="1" source="Wh_Dt6q6_cqK60cal_yp-22" target="Wh_Dt6q6_cqK60cal_yp-30">
          <mxGeometry relative="1" as="geometry" />
        </mxCell>
        <mxCell id="Wh_Dt6q6_cqK60cal_yp-22" value="" style="rhombus;whiteSpace=wrap;html=1;shadow=0;fontFamily=Helvetica;fontSize=12;align=center;strokeWidth=1;spacing=6;spacingTop=-4;" vertex="1" parent="1">
          <mxGeometry x="204" y="406" width="100" height="80" as="geometry" />
        </mxCell>
        <mxCell id="Wh_Dt6q6_cqK60cal_yp-47" style="edgeStyle=none;curved=1;rounded=0;orthogonalLoop=1;jettySize=auto;html=1;exitX=0.5;exitY=1;exitDx=0;exitDy=0;entryX=0.5;entryY=0;entryDx=0;entryDy=0;fontFamily=Architects Daughter;fontSource=https%3A%2F%2Ffonts.googleapis.com%2Fcss%3Ffamily%3DArchitects%2BDaughter;fontSize=16;startSize=14;endArrow=open;endSize=14;sourcePerimeterSpacing=8;targetPerimeterSpacing=8;" edge="1" parent="1" source="Wh_Dt6q6_cqK60cal_yp-24" target="Wh_Dt6q6_cqK60cal_yp-46">
          <mxGeometry relative="1" as="geometry" />
        </mxCell>
        <mxCell id="Wh_Dt6q6_cqK60cal_yp-24" value="test sürüşü bilgileri sisteme kaydedilir." style="rounded=1;whiteSpace=wrap;html=1;fontFamily=Architects Daughter;fontSource=https%3A%2F%2Ffonts.googleapis.com%2Fcss%3Ffamily%3DArchitects%2BDaughter;" vertex="1" parent="1">
          <mxGeometry x="196" y="923" width="120" height="60" as="geometry" />
        </mxCell>
        <mxCell id="Wh_Dt6q6_cqK60cal_yp-51" style="edgeStyle=none;curved=1;rounded=0;orthogonalLoop=1;jettySize=auto;html=1;exitX=0.5;exitY=1;exitDx=0;exitDy=0;entryX=1;entryY=0.5;entryDx=0;entryDy=0;fontFamily=Architects Daughter;fontSource=https%3A%2F%2Ffonts.googleapis.com%2Fcss%3Ffamily%3DArchitects%2BDaughter;fontSize=16;startSize=14;endArrow=open;endSize=14;sourcePerimeterSpacing=8;targetPerimeterSpacing=8;" edge="1" parent="1" source="Wh_Dt6q6_cqK60cal_yp-26" target="Wh_Dt6q6_cqK60cal_yp-30">
          <mxGeometry relative="1" as="geometry" />
        </mxCell>
        <mxCell id="Wh_Dt6q6_cqK60cal_yp-26" value="araç depodan bayiye çekilir." style="rounded=1;whiteSpace=wrap;html=1;fontFamily=Architects Daughter;fontSource=https%3A%2F%2Ffonts.googleapis.com%2Fcss%3Ffamily%3DArchitects%2BDaughter;" vertex="1" parent="1">
          <mxGeometry x="417" y="416" width="120" height="60" as="geometry" />
        </mxCell>
        <mxCell id="Wh_Dt6q6_cqK60cal_yp-33" style="edgeStyle=none;curved=1;rounded=0;orthogonalLoop=1;jettySize=auto;html=1;exitX=0.5;exitY=1;exitDx=0;exitDy=0;entryX=0.5;entryY=0;entryDx=0;entryDy=0;fontFamily=Architects Daughter;fontSource=https%3A%2F%2Ffonts.googleapis.com%2Fcss%3Ffamily%3DArchitects%2BDaughter;fontSize=16;startSize=14;endArrow=open;endSize=14;sourcePerimeterSpacing=8;targetPerimeterSpacing=8;" edge="1" parent="1" source="Wh_Dt6q6_cqK60cal_yp-28" target="Wh_Dt6q6_cqK60cal_yp-20">
          <mxGeometry relative="1" as="geometry" />
        </mxCell>
        <mxCell id="Wh_Dt6q6_cqK60cal_yp-35" style="edgeStyle=none;curved=1;rounded=0;orthogonalLoop=1;jettySize=auto;html=1;exitX=1;exitY=0.5;exitDx=0;exitDy=0;entryX=0;entryY=0.5;entryDx=0;entryDy=0;fontFamily=Architects Daughter;fontSource=https%3A%2F%2Ffonts.googleapis.com%2Fcss%3Ffamily%3DArchitects%2BDaughter;fontSize=16;startSize=14;endArrow=open;endSize=14;sourcePerimeterSpacing=8;targetPerimeterSpacing=8;" edge="1" parent="1" source="Wh_Dt6q6_cqK60cal_yp-28" target="Wh_Dt6q6_cqK60cal_yp-34">
          <mxGeometry relative="1" as="geometry" />
        </mxCell>
        <mxCell id="Wh_Dt6q6_cqK60cal_yp-28" value="" style="rhombus;whiteSpace=wrap;html=1;shadow=0;fontFamily=Helvetica;fontSize=12;align=center;strokeWidth=1;spacing=6;spacingTop=-4;" vertex="1" parent="1">
          <mxGeometry x="204" y="665" width="100" height="80" as="geometry" />
        </mxCell>
        <mxCell id="Wh_Dt6q6_cqK60cal_yp-32" style="edgeStyle=none;curved=1;rounded=0;orthogonalLoop=1;jettySize=auto;html=1;exitX=0.5;exitY=1;exitDx=0;exitDy=0;entryX=0.5;entryY=0;entryDx=0;entryDy=0;fontFamily=Architects Daughter;fontSource=https%3A%2F%2Ffonts.googleapis.com%2Fcss%3Ffamily%3DArchitects%2BDaughter;fontSize=16;startSize=14;endArrow=open;endSize=14;sourcePerimeterSpacing=8;targetPerimeterSpacing=8;" edge="1" parent="1" source="Wh_Dt6q6_cqK60cal_yp-30" target="Wh_Dt6q6_cqK60cal_yp-28">
          <mxGeometry relative="1" as="geometry" />
        </mxCell>
        <mxCell id="Wh_Dt6q6_cqK60cal_yp-30" value="bayi, tarih uygunluğunu kontrol eder." style="rounded=1;whiteSpace=wrap;html=1;fontFamily=Architects Daughter;fontSource=https%3A%2F%2Ffonts.googleapis.com%2Fcss%3Ffamily%3DArchitects%2BDaughter;" vertex="1" parent="1">
          <mxGeometry x="194" y="537" width="120" height="60" as="geometry" />
        </mxCell>
        <mxCell id="Wh_Dt6q6_cqK60cal_yp-48" style="edgeStyle=none;curved=1;rounded=0;orthogonalLoop=1;jettySize=auto;html=1;exitX=0.5;exitY=1;exitDx=0;exitDy=0;entryX=0.5;entryY=0;entryDx=0;entryDy=0;fontFamily=Architects Daughter;fontSource=https%3A%2F%2Ffonts.googleapis.com%2Fcss%3Ffamily%3DArchitects%2BDaughter;fontSize=16;startSize=14;endArrow=open;endSize=14;sourcePerimeterSpacing=8;targetPerimeterSpacing=8;" edge="1" parent="1" source="Wh_Dt6q6_cqK60cal_yp-34" target="Wh_Dt6q6_cqK60cal_yp-40">
          <mxGeometry relative="1" as="geometry" />
        </mxCell>
        <mxCell id="Wh_Dt6q6_cqK60cal_yp-34" value="teklif reddedilir." style="rounded=1;whiteSpace=wrap;html=1;fontFamily=Architects Daughter;fontSource=https%3A%2F%2Ffonts.googleapis.com%2Fcss%3Ffamily%3DArchitects%2BDaughter;" vertex="1" parent="1">
          <mxGeometry x="419" y="675" width="120" height="60" as="geometry" />
        </mxCell>
        <mxCell id="Wh_Dt6q6_cqK60cal_yp-36" value="[stokta var]" style="text;strokeColor=none;fillColor=none;html=1;align=center;verticalAlign=middle;whiteSpace=wrap;rounded=0;fontSize=20;fontFamily=Architects Daughter;fontSource=https%3A%2F%2Ffonts.googleapis.com%2Fcss%3Ffamily%3DArchitects%2BDaughter;" vertex="1" parent="1">
          <mxGeometry x="120" y="503" width="126" height="10" as="geometry" />
        </mxCell>
        <mxCell id="Wh_Dt6q6_cqK60cal_yp-37" value="[else]" style="text;strokeColor=none;fillColor=none;html=1;align=center;verticalAlign=middle;whiteSpace=wrap;rounded=0;fontSize=20;fontFamily=Architects Daughter;fontSource=https%3A%2F%2Ffonts.googleapis.com%2Fcss%3Ffamily%3DArchitects%2BDaughter;" vertex="1" parent="1">
          <mxGeometry x="335" y="433" width="57" height="4" as="geometry" />
        </mxCell>
        <mxCell id="Wh_Dt6q6_cqK60cal_yp-38" value="[tarih uygun]" style="text;strokeColor=none;fillColor=none;html=1;align=center;verticalAlign=middle;whiteSpace=wrap;rounded=0;fontSize=20;fontFamily=Architects Daughter;fontSource=https%3A%2F%2Ffonts.googleapis.com%2Fcss%3Ffamily%3DArchitects%2BDaughter;" vertex="1" parent="1">
          <mxGeometry x="109" y="773" width="159" height="13" as="geometry" />
        </mxCell>
        <mxCell id="Wh_Dt6q6_cqK60cal_yp-39" value="[else]" style="text;strokeColor=none;fillColor=none;html=1;align=center;verticalAlign=middle;whiteSpace=wrap;rounded=0;fontSize=20;fontFamily=Architects Daughter;fontSource=https%3A%2F%2Ffonts.googleapis.com%2Fcss%3Ffamily%3DArchitects%2BDaughter;" vertex="1" parent="1">
          <mxGeometry x="263" y="690" width="174" height="7" as="geometry" />
        </mxCell>
        <mxCell id="Wh_Dt6q6_cqK60cal_yp-40" value="" style="ellipse;html=1;shape=endState;fillColor=#000000;strokeColor=#ff0000;fontFamily=Architects Daughter;fontSource=https%3A%2F%2Ffonts.googleapis.com%2Fcss%3Ffamily%3DArchitects%2BDaughter;" vertex="1" parent="1">
          <mxGeometry x="464" y="791" width="30" height="30" as="geometry" />
        </mxCell>
        <mxCell id="Wh_Dt6q6_cqK60cal_yp-44" value="" style="ellipse;html=1;shape=startState;fillColor=#000000;strokeColor=#ff0000;fontFamily=Architects Daughter;fontSource=https%3A%2F%2Ffonts.googleapis.com%2Fcss%3Ffamily%3DArchitects%2BDaughter;" vertex="1" parent="1">
          <mxGeometry x="239" y="-158" width="30" height="30" as="geometry" />
        </mxCell>
        <mxCell id="Wh_Dt6q6_cqK60cal_yp-45" value="" style="edgeStyle=orthogonalEdgeStyle;html=1;verticalAlign=bottom;endArrow=open;endSize=8;strokeColor=#ff0000;rounded=0;fontFamily=Architects Daughter;fontSource=https%3A%2F%2Ffonts.googleapis.com%2Fcss%3Ffamily%3DArchitects%2BDaughter;fontSize=16;sourcePerimeterSpacing=8;targetPerimeterSpacing=8;curved=1;" edge="1" source="Wh_Dt6q6_cqK60cal_yp-44" parent="1">
          <mxGeometry relative="1" as="geometry">
            <mxPoint x="254" y="-68" as="targetPoint" />
          </mxGeometry>
        </mxCell>
        <mxCell id="Wh_Dt6q6_cqK60cal_yp-46" value="" style="ellipse;html=1;shape=endState;fillColor=#000000;strokeColor=#ff0000;fontFamily=Architects Daughter;fontSource=https%3A%2F%2Ffonts.googleapis.com%2Fcss%3Ffamily%3DArchitects%2BDaughter;" vertex="1" parent="1">
          <mxGeometry x="241" y="1032" width="30" height="30" as="geometry" />
        </mxCell>
      </root>
    </mxGraphModel>
  </diagram>
</mxfile>
